<?xml version="1.0" standalone="no"?>
<!DOCTYPE svg PUBLIC "-//W3C//DTD SVG 20010904//EN"
 "http://www.w3.org/TR/2001/REC-SVG-20010904/DTD/svg10.dtd">
<svg version="1.0" xmlns="http://www.w3.org/2000/svg"
 width="1536.000000pt" height="1024.000000pt" viewBox="0 0 1536.000000 1024.000000"
 preserveAspectRatio="xMidYMid meet">

<g transform="translate(0.000000,1024.000000) scale(0.100000,-0.100000)"
fill="#000000" stroke="none">
<path d="M0 5120 l0 -5120 7680 0 7680 0 0 5120 0 5120 -7680 0 -7680 0 0
-5120z m3450 2549 c118 -13 198 -31 319 -70 96 -32 308 -126 300 -134 -3 -2
-44 12 -92 31 -295 118 -728 136 -1084 45 -740 -191 -1289 -782 -1426 -1536
-18 -101 -22 -157 -22 -350 0 -244 9 -315 60 -517 135 -527 516 -1009 995
-1257 190 -98 362 -156 590 -197 144 -26 447 -24 605 5 192 35 419 122 580
223 156 99 373 294 467 421 56 74 72 87 38 30 -86 -146 -276 -349 -448 -478
-210 -157 -508 -281 -812 -337 -96 -18 -153 -22 -340 -21 -201 0 -240 3 -360
26 -635 123 -1161 529 -1450 1119 -146 299 -207 553 -217 898 -8 283 20 478
103 730 147 443 415 794 802 1053 379 253 897 371 1392 316z m1580 -80 c118
-13 283 -22 455 -26 l270 -5 244 -64 c296 -77 297 -77 596 -109 132 -14 263
-32 290 -41 28 -9 91 -38 140 -64 164 -89 902 -420 934 -420 18 0 13 -9 -36
-79 -42 -58 -91 -125 -324 -432 l-58 -77 -148 84 c-168 96 -514 273 -585 299
-27 10 -48 19 -48 21 0 2 17 19 37 38 51 46 38 53 -23 12 -83 -56 -265 -121
-424 -152 -129 -25 -247 -23 -363 5 -88 22 -104 23 -167 12 -87 -14 -180 -50
-383 -148 -169 -82 -224 -95 -293 -73 -53 17 -74 38 -74 72 0 89 110 178 400
324 108 54 172 93 210 128 30 28 75 68 98 89 65 57 44 55 -31 -3 -37 -27 -70
-50 -74 -50 -5 0 -30 16 -57 35 -49 34 -73 45 -61 25 10 -16 -27 -62 -62 -76
-18 -8 -52 -14 -76 -14 -41 0 -45 -3 -77 -52 -40 -60 -90 -98 -130 -98 -25 0
-28 -4 -33 -52 -6 -46 -13 -58 -63 -108 -71 -71 -83 -93 -84 -151 0 -70 42
-115 120 -129 35 -6 35 -6 34 -55 -1 -97 -23 -135 -78 -135 -63 0 -67 14 -96
330 -6 63 -17 150 -25 194 -28 147 -22 165 89 292 39 44 85 97 101 118 l30 38
77 -26 c77 -26 218 -37 218 -17 0 5 -28 22 -63 39 -72 33 -127 78 -157 128
-17 27 -28 34 -54 34 -17 0 -123 23 -236 50 -113 28 -212 50 -220 50 -9 0 -33
-9 -55 -20 -22 -11 -52 -20 -67 -20 -16 0 -46 -13 -69 -29 -67 -49 -159 -75
-271 -75 -83 -1 -100 2 -125 20 -22 17 -28 29 -28 58 0 36 1 37 65 60 82 29
160 68 333 169 163 94 199 109 252 102 22 -3 123 -15 225 -26z m-1518 -420
c394 -78 693 -310 860 -665 22 -47 51 -129 65 -182 22 -86 24 -110 19 -212
l-6 -115 32 -55 c17 -31 91 -116 169 -195 141 -143 159 -170 159 -232 0 -40
-37 -82 -122 -140 -27 -19 -48 -40 -48 -50 0 -10 12 -43 26 -73 29 -62 27
-100 -7 -136 l-20 -21 21 -36 c26 -43 19 -76 -20 -105 l-28 -21 14 -58 c8 -32
14 -94 14 -139 0 -68 -4 -89 -27 -135 -32 -63 -87 -108 -167 -138 -82 -31
-164 -41 -331 -41 -239 -1 -349 -23 -403 -80 -29 -31 -58 -122 -91 -287 l-28
-138 -7 85 c-4 47 -9 100 -13 118 l-5 32 -362 0 -362 0 -23 -31 c-21 -28 -27
-31 -65 -26 -49 7 -76 36 -76 83 0 47 29 74 80 74 31 0 47 -6 64 -25 l23 -25
362 0 361 0 0 30 c0 103 49 188 134 233 38 20 62 22 311 28 149 4 291 12 316
18 107 25 190 78 215 138 19 45 17 103 -7 224 l-21 103 31 28 c31 27 31 29 16
58 -21 41 -19 67 10 96 30 30 30 30 5 82 -21 44 -26 121 -10 152 5 10 37 35
70 55 56 34 90 67 90 88 0 5 -62 73 -138 151 -221 226 -242 270 -240 488 1
153 -14 215 -85 353 -182 350 -537 569 -962 592 -259 14 -507 -49 -752 -190
-457 -261 -710 -771 -629 -1268 32 -199 112 -396 203 -499 40 -46 43 -51 16
-32 -68 48 -150 192 -209 367 -90 271 -58 667 77 938 101 202 277 405 450 520
205 136 457 222 704 241 88 6 247 -5 347 -25z m-176 -423 c19 -19 34 -43 34
-54 0 -18 20 -25 176 -62 175 -42 175 -42 190 -22 18 26 74 45 108 36 14 -3
38 -20 52 -37 22 -26 25 -38 21 -71 -3 -23 -16 -49 -30 -64 l-25 -24 38 -112
c51 -149 49 -145 76 -152 36 -9 64 -51 64 -95 0 -77 -31 -109 -110 -112 l-45
-2 -93 -148 -93 -147 16 -31 c21 -40 12 -99 -21 -130 -25 -23 -71 -30 -111
-16 -19 7 -35 -11 -150 -170 -70 -97 -127 -181 -125 -185 24 -79 -28 -147
-103 -135 -29 5 -37 -1 -109 -79 l-78 -85 17 -35 c13 -29 14 -41 5 -69 -15
-45 -44 -65 -96 -65 -55 0 -94 42 -94 100 0 37 -3 41 -87 101 -49 35 -123 89
-166 122 -75 57 -79 58 -97 42 -42 -38 -140 10 -140 68 0 12 6 34 14 49 13 25
10 38 -54 199 -55 141 -72 174 -91 181 -47 18 -69 48 -69 96 0 38 5 49 34 76
l35 31 -9 155 c-5 85 -9 180 -10 210 0 55 -1 56 -35 69 -66 23 -84 111 -32
158 38 35 66 45 96 35 25 -9 40 1 196 122 137 106 171 137 173 159 5 37 56 87
91 87 33 0 77 -31 86 -61 7 -20 12 -21 148 -15 227 10 247 13 247 40 0 41 42
75 94 76 19 0 39 -11 62 -34z m2606 -247 c-2 -13 -28 -76 -57 -139 -42 -89
-55 -129 -58 -178 -6 -71 -33 -112 -74 -112 -44 0 -63 33 -63 107 0 37 4 92
10 122 5 31 12 77 15 102 3 26 12 54 19 64 12 17 178 68 201 61 6 -2 9 -14 7
-27z m4997 -120 c20 -6 43 -13 51 -16 8 -4 19 -5 24 -4 4 1 14 -3 20 -9 17
-13 26 -3 26 28 0 35 13 19 25 -31 12 -49 26 -56 54 -26 26 29 39 18 17 -15
-23 -35 -21 -42 19 -60 22 -11 35 -24 35 -36 0 -21 44 -60 68 -60 12 0 12 -3
2 -15 -10 -11 -9 -18 4 -30 9 -9 16 -21 16 -26 0 -5 11 -14 25 -19 29 -11 33
-29 8 -31 -17 -1 -17 -2 0 -6 9 -2 17 -14 17 -25 0 -27 45 -68 75 -68 42 0 36
-17 -7 -24 -43 -7 -78 -30 -78 -51 0 -7 -11 -33 -25 -59 -13 -25 -25 -48 -25
-51 0 -3 0 -9 0 -15 0 -5 -6 -10 -13 -10 -8 0 -24 -11 -37 -25 -21 -22 -22
-29 -12 -45 18 -30 15 -32 -18 -15 -29 15 -34 15 -85 -11 -30 -14 -55 -28 -55
-31 0 -3 9 -16 20 -30 28 -36 17 -41 -20 -9 -35 29 -46 31 -85 16 -14 -5 -39
-11 -55 -12 -16 -1 -27 -5 -24 -9 2 -4 0 -10 -5 -13 -4 -3 -12 -20 -16 -38
l-7 -33 -12 39 c-11 38 -13 40 -79 56 -37 9 -67 14 -67 12 0 -3 -8 4 -17 14
-10 11 -36 34 -58 51 l-40 31 -45 -26 c-48 -28 -48 -27 7 41 22 27 22 29 5 46
-19 21 -87 45 -101 37 -5 -3 -23 0 -41 8 l-32 13 43 8 c24 4 47 9 52 10 4 1
10 3 14 4 4 0 -14 21 -40 45 -49 44 -79 55 -162 57 -54 1 -21 15 57 24 89 11
98 40 35 110 -42 49 -37 60 9 20 29 -25 61 -29 57 -7 -2 7 4 9 14 5 9 -4 14
-2 10 3 -3 6 7 26 23 44 25 30 27 36 14 43 -9 5 -24 7 -34 4 -13 -3 -25 3 -35
20 l-16 24 29 -15 c16 -8 31 -13 33 -11 3 2 17 6 32 9 35 6 47 14 47 32 0 8 6
14 13 14 8 0 7 4 -3 10 -13 8 -12 10 3 10 9 0 17 5 17 10 0 6 7 10 15 10 22 0
19 13 -15 55 -16 21 -30 40 -30 42 0 6 58 -36 65 -47 8 -13 45 -13 45 0 0 15
83 49 129 51 41 3 42 4 54 48 l11 46 10 -37 c8 -31 16 -39 45 -49z m-5495 -97
c30 -90 32 -109 10 -140 -23 -33 -58 -28 -92 14 -42 51 -87 143 -76 154 8 8
107 47 125 49 3 1 18 -34 33 -77z m5955 -460 c13 -25 -2 -46 -28 -37 -20 6
-28 34 -14 48 12 13 32 7 42 -11z m-39 -127 c0 -19 -20 -29 -32 -17 -15 15 -2
43 17 36 8 -3 15 -12 15 -19z m-2110 -306 c165 -16 150 -4 150 -115 l0 -97
-57 7 c-145 16 -358 24 -405 16 -87 -17 -108 -38 -108 -111 0 -35 6 -47 38
-79 30 -30 56 -43 127 -65 308 -91 352 -110 399 -165 45 -54 59 -109 54 -217
-6 -141 -48 -212 -159 -268 -96 -49 -163 -58 -399 -51 -118 3 -234 9 -257 12
l-43 7 0 104 c0 104 0 105 23 100 12 -3 85 -13 162 -22 302 -37 435 1 435 123
0 85 -23 100 -254 167 -226 65 -282 99 -332 201 -24 50 -26 61 -22 156 3 87 8
111 31 154 76 148 222 181 617 143z m3205 -9 l60 -11 -2 -92 c-2 -82 -4 -92
-20 -90 -200 20 -269 23 -348 13 -104 -13 -155 -37 -194 -90 -44 -61 -55 -124
-55 -305 0 -142 3 -166 23 -218 45 -115 121 -157 280 -157 78 0 212 17 284 35
l28 7 -3 -93 -3 -94 -70 -19 c-91 -24 -340 -33 -427 -16 -248 48 -335 178
-353 525 -8 139 11 297 46 390 44 117 152 198 302 225 66 12 373 5 452 -10z
m-6265 -76 l0 -86 -204 -277 c-112 -152 -238 -320 -279 -375 -43 -55 -73 -104
-70 -112 4 -12 55 -14 289 -14 l284 0 0 -90 0 -90 -445 0 -445 0 0 74 0 73
242 324 c284 381 322 435 313 449 -4 6 -101 10 -271 10 l-264 0 0 100 0 100
425 0 425 0 0 -86z m1018 -9 l-3 -96 -270 -2 -270 -2 -3 -137 -3 -138 242 -2
241 -3 1 -87 2 -88 -240 -2 -240 -3 -3 -147 -3 -148 286 0 285 0 0 -90 0 -90
-400 0 -400 0 0 565 0 565 390 0 391 0 -3 -95z m464 -327 c3 -405 4 -425 23
-458 34 -57 75 -74 190 -78 161 -6 232 25 254 112 7 30 11 182 11 445 l0 401
115 0 115 0 0 -434 c0 -399 -2 -439 -19 -495 -23 -76 -58 -123 -115 -156 -88
-51 -136 -60 -336 -60 -163 0 -193 3 -255 22 -88 28 -144 75 -182 151 l-28 57
-3 458 -3 457 115 0 115 0 3 -422z m2854 406 c-3 -9 -6 -54 -6 -100 l0 -84
-175 0 -175 0 0 -465 0 -465 -117 0 -118 0 3 465 2 465 -177 2 -178 3 -3 98
-3 97 477 0 c430 0 476 -2 470 -16z m954 -84 l0 -100 -275 0 -275 0 0 -135 0
-135 240 0 241 0 -3 -90 -3 -90 -235 -5 -235 -5 -3 -145 -3 -145 276 0 275 0
0 -90 0 -90 -390 0 -390 0 -2 565 -3 565 393 0 392 0 0 -100z m1490 -135 l0
-234 243 -3 c133 -2 245 -2 250 0 4 2 7 109 7 238 l0 234 109 0 110 0 0 -565
1 -565 -110 0 -110 0 0 240 0 240 -247 -2 -248 -3 -3 -237 -2 -238 -110 0
-110 0 0 565 0 565 110 0 110 0 0 -235z m-8159 -738 c-10 -9 -11 -8 -5 6 3 10
9 15 12 12 3 -3 0 -11 -7 -18z m6242 -637 c4 0 7 -12 7 -26 0 -21 -3 -25 -17
-19 -63 28 -127 16 -153 -28 -30 -49 -26 -102 10 -138 26 -26 36 -30 77 -27
l48 3 0 40 c0 38 -2 40 -30 40 -20 1 -31 6 -33 18 -3 15 5 17 57 17 l61 0 0
-55 c0 -78 -27 -105 -106 -105 -69 0 -109 21 -135 72 -61 119 39 246 171 216
19 -4 38 -8 43 -8z m-5492 0 c25 -14 27 -56 2 -44 -34 14 -95 16 -120 3 -32
-17 -53 -59 -53 -104 0 -27 8 -44 30 -66 26 -26 36 -30 77 -27 l48 3 0 40 c0
38 -2 40 -30 40 -20 1 -31 6 -33 18 -3 14 5 17 52 17 l56 0 0 -65 c0 -58 -3
-66 -25 -81 -36 -23 -120 -22 -154 3 -62 47 -85 114 -60 180 13 34 47 72 74
83 29 12 113 12 136 0z m374 -21 c66 -58 71 -151 11 -217 -31 -33 -39 -36 -98
-40 -61 -4 -67 -2 -101 28 -41 35 -62 92 -51 137 20 84 68 123 151 123 44 0
58 -5 88 -31z m319 17 c98 -41 114 -178 29 -243 -31 -24 -48 -29 -115 -32
l-78 -3 0 146 0 146 65 0 c36 0 80 -6 99 -14z m223 -27 c-5 -41 -30 -79 -43
-67 -3 4 -1 14 4 24 7 12 6 23 -1 35 -14 23 -2 49 24 49 20 0 21 -4 16 -41z
m274 31 c25 -14 27 -56 2 -44 -39 17 -99 16 -113 -1 -20 -24 -2 -46 50 -66 81
-30 108 -76 79 -131 -16 -29 -73 -50 -117 -42 -46 8 -62 20 -62 46 0 15 4 18
18 13 75 -30 122 -23 122 19 0 21 -11 30 -67 58 -66 32 -68 34 -71 75 -4 57
24 83 91 83 26 0 57 -5 68 -10z m339 -55 l0 -66 73 3 72 3 3 63 c3 58 4 62 27
62 l25 0 0 -145 0 -145 -25 0 c-24 0 -25 2 -25 65 l0 65 -75 0 -75 0 0 -65 c0
-63 -1 -65 -25 -65 l-25 0 0 145 0 145 25 0 c24 0 25 -2 25 -65z m511 -80 c32
-77 59 -141 59 -142 0 -2 -10 -3 -23 -3 -17 0 -28 10 -40 35 -16 34 -18 35
-77 35 -60 0 -61 0 -76 -35 -11 -27 -20 -35 -39 -35 -26 0 -31 9 -16 25 4 6
32 68 61 138 70 169 73 169 151 -18z m262 45 c37 -55 72 -100 78 -100 5 0 9
44 9 100 0 93 1 100 20 100 19 0 20 -7 20 -145 0 -144 0 -145 -22 -145 -18 0
-40 24 -93 100 -38 55 -73 100 -77 100 -4 0 -8 -45 -8 -100 0 -93 -1 -100 -20
-100 -19 0 -20 7 -20 145 0 144 0 145 23 145 17 -1 38 -25 90 -100z m422 80
c50 -24 75 -65 75 -123 0 -92 -68 -147 -182 -147 l-68 0 0 145 0 145 67 0 c46
0 79 -6 108 -20z m537 -8 c31 -31 31 -97 0 -122 -12 -10 -28 -20 -34 -22 -8
-3 1 -23 25 -55 20 -28 37 -53 37 -57 0 -3 -11 -6 -24 -6 -17 0 -33 14 -61 55
-28 40 -45 55 -62 55 -21 0 -23 -4 -23 -55 0 -52 -1 -55 -25 -55 l-25 0 0 146
0 146 85 -3 c72 -3 88 -7 107 -27z m328 8 c0 -17 -8 -19 -72 -22 l-73 -3 0
-40 0 -40 63 -3 c45 -2 62 -7 62 -17 0 -10 -17 -15 -62 -17 l-63 -3 0 -40 0
-40 73 -3 c64 -3 72 -5 72 -22 0 -18 -7 -20 -95 -20 l-95 0 0 145 0 145 95 0
c88 0 95 -2 95 -20z m298 -115 c29 -71 56 -136 59 -142 3 -9 -4 -13 -21 -13
-20 0 -29 8 -39 33 -14 31 -16 33 -75 35 l-62 2 -14 -35 c-11 -26 -21 -35 -39
-35 -24 0 -24 2 37 145 79 187 81 187 154 10z m353 125 c11 -6 19 -21 19 -35
0 -23 -1 -23 -27 -9 -64 33 -134 4 -152 -61 -12 -45 2 -99 32 -120 27 -19 84
-19 120 -1 26 14 27 14 27 -9 0 -31 -30 -47 -92 -48 -81 -1 -140 58 -140 140
0 95 55 153 145 153 27 0 57 -5 68 -10z m181 -52 l3 -63 70 0 70 0 3 63 c3 59
4 62 28 62 l25 0 -3 -142 c-3 -139 -4 -143 -25 -146 -20 -3 -22 1 -25 60 l-3
63 -72 3 -73 3 0 -66 c0 -63 -1 -65 -25 -65 l-25 0 0 145 0 145 25 0 c23 0 24
-4 27 -62z m368 -83 l0 -145 -25 0 -25 0 0 145 0 145 25 0 25 0 0 -145z m242
38 l73 -108 3 108 c3 107 3 107 28 107 l25 0 -3 -142 -3 -143 -24 0 c-20 0
-39 20 -95 99 l-71 98 -3 -102 c-3 -98 -3 -101 -25 -98 -21 3 -22 7 -25 146
l-3 142 25 0 c21 0 38 -19 98 -107z m867 12 c29 -52 55 -95 60 -95 4 0 31 43
60 95 37 67 58 95 71 95 17 0 18 -9 14 -142 -4 -134 -6 -143 -25 -146 -19 -3
-20 1 -18 88 1 50 0 92 -2 94 -2 3 -24 -31 -48 -75 -25 -44 -49 -78 -55 -76
-6 2 -31 39 -56 82 l-45 80 -3 -98 c-2 -89 -4 -97 -22 -97 -19 0 -20 8 -20
145 0 136 1 145 19 145 14 0 33 -26 70 -95z m515 -42 c31 -76 56 -141 56 -145
0 -5 -9 -8 -21 -8 -14 0 -25 11 -35 35 l-15 36 -62 -3 c-59 -3 -63 -4 -76 -35
-13 -30 -38 -42 -54 -27 -3 4 3 24 13 44 16 32 53 120 91 218 5 12 17 22 27
22 15 0 31 -29 76 -137z m268 32 c40 -57 76 -104 81 -105 4 0 7 47 7 105 0 98
1 105 20 105 19 0 20 -7 20 -145 0 -144 0 -145 -22 -145 -18 0 -41 25 -98 105
l-75 106 -3 -106 c-2 -97 -4 -105 -22 -105 -19 0 -20 7 -20 145 0 136 1 145
19 145 13 0 43 -33 93 -105z m288 45 c0 -33 3 -60 8 -60 4 0 31 27 60 60 44
50 59 60 85 60 l31 0 -69 -70 -69 -70 67 -68 c37 -37 67 -71 67 -75 0 -4 -10
-7 -23 -7 -14 0 -44 22 -82 60 -33 33 -63 60 -67 60 -4 0 -8 -27 -8 -61 0 -57
-1 -60 -22 -57 -23 3 -23 5 -21 143 1 77 2 141 3 143 0 1 9 2 20 2 18 0 20 -7
20 -60z m330 -85 l0 -145 -25 0 -25 0 0 145 0 145 25 0 25 0 0 -145z m240 37
l75 -107 3 108 c2 99 4 107 22 107 19 0 20 -7 20 -145 0 -137 -1 -145 -19
-145 -14 0 -43 32 -92 100 -40 55 -77 100 -82 100 -4 0 -7 -44 -6 -97 2 -90 0
-98 -17 -98 -18 0 -19 10 -22 143 l-3 142 23 -1 c18 0 41 -26 98 -107z m409
90 c53 -26 75 -64 75 -125 0 -96 -64 -147 -184 -147 l-60 0 0 145 0 145 68 0
c44 0 79 -6 101 -18z m-4024 -583 c34 -9 44 -16 48 -36 4 -19 1 -23 -12 -17
-32 13 -108 16 -129 5 -34 -18 -55 -68 -49 -115 7 -51 44 -86 92 -86 53 0 65
9 65 45 0 31 -3 34 -32 37 -22 2 -34 9 -36 21 -3 15 5 17 57 17 l61 0 0 -59
c0 -79 -25 -101 -111 -101 -51 0 -63 4 -94 31 -87 77 -56 228 53 257 20 5 38
10 40 11 2 1 23 -4 47 -10z m1487 -10 c25 -13 25 -54 1 -44 -29 13 -81 18
-108 11 -31 -8 -65 -60 -65 -99 0 -35 24 -83 49 -97 29 -15 94 -12 120 6 22
16 22 16 19 -12 -2 -23 -10 -31 -38 -41 -110 -35 -216 59 -194 173 8 46 56
101 98 113 33 10 89 5 118 -10z m-3174 -11 c3 -15 -4 -18 -42 -18 l-46 0 0
-125 0 -125 -25 0 -25 0 0 125 0 125 -44 0 c-43 0 -46 3 -37 38 1 1 49 1 108
0 93 -3 108 -5 111 -20z m133 -41 l-2 -58 78 3 78 3 0 55 c0 49 2 55 23 58 22
3 22 3 22 -142 l0 -146 -24 0 c-23 0 -24 3 -23 63 l2 62 -75 0 -75 0 0 -62 c0
-59 -1 -63 -22 -63 -23 0 -23 1 -23 146 0 144 0 145 22 142 20 -3 22 -8 19
-61z m485 53 c38 -15 53 -38 54 -82 0 -35 -29 -78 -52 -78 -16 0 -8 -19 27
-64 19 -26 35 -48 35 -51 0 -3 -11 -5 -25 -5 -18 0 -34 14 -62 55 -30 43 -44
54 -65 55 -27 0 -28 -2 -28 -56 0 -50 -2 -55 -21 -52 -19 3 -20 9 -20 141 0
75 1 139 1 142 0 9 129 5 156 -5z m376 -7 c87 -51 89 -200 3 -253 -39 -24
-113 -27 -155 -5 -89 46 -93 203 -6 256 40 24 118 25 158 2z m208 -80 c0 -123
11 -147 65 -151 22 -1 46 2 53 6 19 13 31 76 32 165 0 74 1 78 21 75 21 -3 22
-8 20 -107 -3 -151 -23 -181 -121 -181 -44 0 -56 5 -81 29 -29 29 -29 31 -29
145 0 109 1 116 20 116 19 0 20 -7 20 -97z m700 37 l0 -60 75 0 75 0 0 61 c0
57 1 60 23 57 21 -3 22 -6 25 -145 l3 -143 -26 0 c-24 0 -25 2 -25 65 l0 65
-75 0 -75 0 0 -66 c0 -62 -1 -65 -22 -62 -22 3 -23 6 -25 138 -1 74 1 138 3
142 3 4 14 8 25 8 17 0 19 -7 19 -60z m680 40 c0 -17 -7 -20 -45 -20 l-45 0 0
-125 0 -125 -25 0 -25 0 0 125 0 125 -39 0 c-36 0 -59 18 -44 34 4 3 55 6 115
6 101 0 108 -1 108 -20z m278 -2 c3 -16 -6 -18 -72 -18 l-76 0 0 -40 0 -40 65
0 c58 0 65 -2 65 -20 0 -18 -7 -20 -66 -20 l-65 0 3 -42 3 -43 73 -3 c64 -3
72 -5 72 -22 0 -18 -7 -20 -95 -20 l-95 0 0 145 0 146 92 -3 c79 -3 93 -6 96
-20z m482 -38 l0 -60 75 0 75 0 0 60 c0 57 1 60 25 60 l25 0 0 -145 0 -145
-25 0 c-24 0 -25 2 -25 65 l0 65 -75 0 -75 0 0 -65 c0 -58 -2 -65 -20 -65 -19
0 -20 7 -20 145 0 138 1 145 20 145 18 0 20 -7 20 -60z m365 -200 c0 -18 -6
-26 -21 -28 -26 -4 -40 24 -23 45 18 21 44 11 44 -17z"/>
<path d="M4255 3880 c-3 -5 -3 -10 2 -10 4 0 1 -5 -7 -10 -8 -5 -10 -10 -4
-10 5 0 19 7 30 15 18 15 18 15 0 8 -13 -4 -17 -3 -12 5 4 7 5 12 2 12 -3 0
-8 -4 -11 -10z"/>
<path d="M4173 3823 c4 -3 -1 -12 -11 -20 -15 -13 -15 -13 6 -3 19 9 23 30 5
30 -4 0 -3 -3 0 -7z"/>
<path d="M4130 3810 c-9 -6 -10 -10 -3 -10 6 0 15 5 18 10 8 12 4 12 -15 0z"/>
<path d="M4066 3775 c-3 -9 0 -15 9 -15 8 0 15 7 15 15 0 8 -4 15 -9 15 -5 0
-11 -7 -15 -15z"/>
<path d="M4110 3780 c-8 -5 -12 -11 -9 -14 3 -3 14 1 25 9 21 16 8 20 -16 5z"/>
<path d="M4030 3770 c-13 -9 -13 -11 0 -20 12 -8 13 -10 1 -10 -8 0 -12 -2 -9
-5 3 -3 16 -2 28 3 16 6 19 11 12 16 -7 4 -10 12 -7 17 8 12 -6 11 -25 -1z"/>
<path d="M3960 3743 c-18 -8 -72 -64 -66 -70 2 -2 12 0 23 5 10 6 32 16 50 22
21 8 31 18 30 31 -1 19 -10 22 -37 12z m24 -24 c-3 -5 -9 -7 -14 -4 -5 3 -11
1 -15 -5 -3 -5 -12 -10 -18 -10 -7 1 -1 9 12 20 22 19 47 18 35 -1z"/>
<path d="M3865 3710 c-16 -6 -14 -8 12 -7 18 0 30 4 27 9 -6 10 -12 9 -39 -2z"/>
<path d="M3756 3631 c-3 -4 6 -6 19 -3 14 2 25 6 25 8 0 8 -39 4 -44 -5z"/>
<path d="M3700 3615 c-14 -8 -20 -14 -15 -14 6 0 21 6 35 14 14 8 21 14 15 14
-5 0 -21 -6 -35 -14z"/>
<path d="M4306 7348 c3 -5 10 -6 15 -3 13 9 11 12 -6 12 -8 0 -12 -4 -9 -9z"/>
<path d="M4245 7335 c-16 -8 -40 -14 -51 -15 -42 0 -42 -62 -1 -76 12 -5 25
-8 29 -9 3 0 10 -3 14 -7 4 -5 12 -8 17 -8 6 0 -3 12 -19 26 -16 15 -23 23
-16 20 6 -4 12 -2 12 3 0 6 5 11 11 11 5 0 7 -4 4 -10 -4 -6 1 -7 11 -3 16 6
15 7 -2 20 -10 7 -12 13 -6 13 7 0 12 7 12 15 0 8 5 14 11 13 6 -2 14 3 16 10
6 15 -3 14 -42 -3z"/>
<path d="M7903 6827 c-1 -16 -9 -34 -17 -41 -7 -6 -26 -33 -41 -61 l-27 -50
26 24 c14 13 23 28 20 32 -3 5 -1 9 4 9 9 0 82 93 82 104 0 2 -10 6 -22 8 -19
4 -23 0 -25 -25z"/>
<path d="M7803 6658 c-15 -20 -25 -38 -20 -38 3 0 12 11 21 25 17 26 16 35 -1
13z"/>
<path d="M3245 6686 c-19 -29 -8 -60 25 -69 25 -6 60 24 60 51 0 45 -59 57
-85 18z"/>
<path d="M2670 6666 c-19 -23 -8 -61 18 -64 46 -7 72 47 33 68 -26 14 -36 13
-51 -4z"/>
<path d="M2914 6633 l-111 -4 -38 -39 -39 -40 12 -68 c7 -37 23 -114 36 -172
21 -99 24 -105 53 -117 l31 -12 172 200 c169 197 172 201 160 230 -14 33 19
30 -276 22z"/>
<path d="M3360 6618 c0 -7 -11 -24 -25 -38 l-25 -26 29 -149 c16 -83 32 -167
35 -187 10 -55 37 -58 79 -11 19 21 84 94 146 163 95 106 111 129 109 154 -3
30 -4 30 -153 68 -161 40 -195 45 -195 26z"/>
<path d="M2525 6518 c-203 -158 -236 -187 -226 -206 5 -10 86 -45 209 -89 110
-40 203 -73 208 -73 5 0 17 12 27 25 17 23 16 29 -8 147 -14 68 -31 146 -37
175 -9 43 -15 54 -39 64 -16 6 -29 15 -29 20 0 16 -14 8 -105 -63z"/>
<path d="M3772 6568 c-34 -34 6 -90 48 -68 35 19 20 80 -20 80 -9 0 -21 -5
-28 -12z"/>
<path d="M3173 6493 c-170 -194 -283 -332 -283 -347 0 -14 24 -16 198 -16
l198 0 27 28 c15 15 27 37 27 48 0 35 -63 339 -73 352 -5 6 -13 12 -18 12 -4
0 -39 -35 -76 -77z"/>
<path d="M3587 6304 c-88 -98 -145 -170 -140 -175 9 -9 105 -19 309 -33 l81
-6 13 30 c7 17 24 39 37 50 l24 18 -43 126 c-29 86 -48 126 -58 126 -8 0 -28
7 -44 15 -15 8 -29 15 -30 15 0 0 -68 -75 -149 -166z"/>
<path d="M2170 6299 c-17 -31 -4 -68 25 -75 30 -8 51 8 58 42 9 49 -60 77 -83
33z"/>
<path d="M2280 6207 l-35 -42 7 -190 c4 -104 10 -199 13 -210 2 -11 15 -25 29
-31 29 -13 30 -12 250 181 81 72 154 134 162 138 17 10 18 41 2 54 -12 9 -378
144 -388 143 -3 0 -21 -20 -40 -43z"/>
<path d="M2777 6142 c-21 -23 -21 -36 -1 -56 22 -23 41 -20 60 9 16 24 16 27
-1 45 -22 25 -37 25 -58 2z"/>
<path d="M3340 6125 c-14 -17 -5 -51 15 -59 35 -13 63 21 45 55 -13 23 -43 25
-60 4z"/>
<path d="M3906 6114 c-34 -33 -8 -82 38 -70 33 8 43 42 20 67 -21 23 -37 24
-58 3z"/>
<path d="M2872 6071 c-12 -28 -9 -35 89 -195 83 -135 106 -166 124 -166 18 0
42 31 123 164 93 150 100 166 89 189 -10 21 -20 25 -77 31 -36 3 -126 6 -200
6 l-135 0 -13 -29z"/>
<path d="M3437 6059 c-15 -21 1 -54 159 -326 11 -18 29 -34 44 -36 14 -3 26
-5 26 -4 17 19 194 312 194 321 0 34 -34 44 -195 55 -211 15 -211 15 -228 -10z"/>
<path d="M2694 5997 c-28 -23 -117 -100 -198 -171 -111 -98 -146 -134 -146
-152 0 -21 21 -34 158 -103 155 -78 159 -79 185 -63 30 18 26 2 57 285 30 281
31 276 -56 204z"/>
<path d="M2809 6028 c-7 -19 -50 -468 -47 -488 6 -42 37 -40 138 9 86 41 95
49 98 76 2 17 11 38 19 47 14 16 9 28 -62 145 -43 71 -90 147 -104 171 -22 35
-38 51 -42 40z"/>
<path d="M3302 5958 c-135 -210 -161 -259 -150 -284 13 -27 18 -28 198 -44 69
-6 137 -13 151 -16 22 -4 28 0 39 26 7 17 19 34 27 39 12 6 -3 40 -80 172
-115 200 -122 204 -185 107z"/>
<path d="M2222 5678 c-28 -28 -7 -78 33 -78 27 0 45 18 45 45 0 27 -18 45 -45
45 -12 0 -26 -5 -33 -12z"/>
<path d="M3056 5654 c-19 -19 -20 -36 -4 -52 20 -20 48 -14 60 13 19 43 -23
73 -56 39z"/>
<path d="M3587 5632 c-32 -35 -15 -82 28 -82 43 0 61 53 29 84 -20 21 -37 20
-57 -2z"/>
<path d="M2340 5601 c0 -5 -11 -23 -25 -39 l-24 -29 63 -159 62 -159 37 1 c31
1 47 12 119 83 81 78 83 82 80 121 l-4 41 -131 65 c-150 76 -177 87 -177 75z"/>
<path d="M3143 5580 c-13 -15 -23 -34 -23 -42 0 -14 87 -329 92 -333 9 -8 65
-14 74 -7 13 9 242 326 249 345 11 26 -20 36 -162 51 -192 22 -203 21 -230
-14z"/>
<path d="M2920 5520 c-52 -26 -95 -52 -94 -58 1 -7 2 -21 3 -31 1 -20 304
-251 329 -251 18 0 15 23 -17 140 -58 213 -60 219 -91 235 -16 8 -30 14 -32
14 -2 -1 -46 -23 -98 -49z"/>
<path d="M2702 5468 c-7 -7 -12 -21 -12 -33 0 -12 5 -26 12 -33 29 -29 78 -7
78 35 0 35 -53 56 -78 31z"/>
<path d="M2785 5354 c-14 -11 -32 -14 -64 -10 -44 6 -44 6 -126 -75 l-83 -81
15 -29 c8 -16 11 -33 8 -39 -11 -17 9 -35 177 -157 147 -107 161 -115 184
-104 14 6 42 11 62 12 34 1 44 9 114 88 61 70 74 90 66 104 -5 10 -8 32 -6 49
3 31 -3 37 -152 145 -85 62 -159 112 -165 112 -5 0 -19 -7 -30 -15z"/>
<path d="M2440 5145 c-15 -18 -6 -45 13 -45 8 0 20 7 27 15 10 12 10 18 0 30
-16 19 -24 19 -40 0z"/>
<path d="M3184 5135 c-34 -52 29 -103 68 -55 23 28 23 35 -2 60 -27 27 -46 25
-66 -5z"/>
<path d="M2916 4817 c-34 -25 -14 -97 26 -97 15 0 48 40 48 59 0 22 -25 51
-44 51 -7 0 -20 -6 -30 -13z"/>
<path d="M13595 5359 c4 -6 14 -8 22 -5 11 5 13 2 9 -10 -4 -11 -2 -15 8 -11
11 5 11 1 -1 -24 -15 -30 -10 -54 10 -42 7 4 6 -1 -2 -10 -8 -10 -11 -20 -7
-24 3 -3 6 -1 6 5 0 7 5 12 10 12 7 0 7 -6 2 -17 -5 -10 -7 -25 -5 -33 4 -12
3 -12 -5 -1 -14 20 -19 2 -15 -59 2 -30 3 -81 4 -113 0 -53 2 -57 17 -45 14
10 13 9 -1 -9 -11 -12 -14 -23 -8 -27 6 -4 6 -18 0 -39 -11 -40 -11 -40 1 -32
14 9 13 -8 -2 -23 -9 -9 -9 -12 0 -12 7 0 12 -5 12 -11 0 -5 -6 -7 -12 -3 -10
6 -10 4 0 -7 14 -15 16 -33 3 -25 -5 3 -11 -16 -13 -43 -2 -33 1 -47 8 -44 6
2 14 -7 16 -21 3 -14 1 -26 -3 -26 -5 0 -9 5 -9 12 0 6 -3 8 -6 5 -4 -4 -1
-13 6 -22 10 -12 10 -15 -2 -15 -19 0 -12 -49 9 -57 11 -4 9 -9 -7 -20 -16
-11 -19 -18 -11 -26 15 -15 14 -47 -1 -47 -8 0 -9 -3 -3 -8 15 -11 13 -112 -2
-112 -7 0 -10 -7 -6 -16 3 -8 11 -13 17 -11 7 3 13 -6 14 -23 2 -23 -3 -28
-26 -33 -16 -3 -40 -4 -53 -1 -22 4 -22 3 -4 -5 11 -5 39 -10 63 -10 l42 -1 0
550 0 550 -41 0 c-26 0 -38 -4 -34 -11z"/>
<path d="M13627 4323 c-4 -3 -7 -11 -7 -17 0 -6 5 -5 12 2 6 6 9 14 7 17 -3 3
-9 2 -12 -2z"/>
<path d="M5792 3734 c-60 -41 -65 -123 -11 -168 43 -37 83 -34 125 8 26 26 34
42 34 71 0 29 -8 45 -34 71 -38 38 -77 44 -114 18z"/>
<path d="M6132 3648 l3 -103 43 -3 c38 -3 47 1 77 31 75 75 26 177 -85 177
l-41 0 3 -102z"/>
<path d="M7494 3665 c-12 -30 -19 -57 -16 -60 8 -8 80 -6 85 3 6 9 -33 112
-42 112 -3 0 -15 -25 -27 -55z"/>
<path d="M8160 3646 l0 -106 35 0 c43 0 90 23 105 49 18 35 12 98 -13 127 -18
21 -35 28 -75 32 l-52 5 0 -107z"/>
<path d="M8680 3700 l0 -50 41 0 c53 0 79 15 79 45 0 36 -26 55 -76 55 l-44 0
0 -50z"/>
<path d="M9347 3671 c-9 -27 -17 -54 -17 -60 0 -13 76 -15 84 -2 6 9 -34 111
-44 111 -3 0 -13 -22 -23 -49z"/>
<path d="M11872 3667 c-12 -29 -22 -56 -22 -60 0 -8 84 -10 92 -1 7 6 -34 114
-43 114 -3 0 -15 -24 -27 -53z"/>
<path d="M13382 3648 l3 -103 34 -3 c103 -10 163 107 92 179 -25 24 -37 29
-81 29 l-51 0 3 -102z"/>
<path d="M8300 3100 l0 -50 48 0 c51 0 82 20 82 53 0 25 -40 47 -87 47 l-43 0
0 -50z"/>
<path d="M8649 3121 c-55 -56 -31 -160 42 -176 41 -9 86 11 104 46 55 106 -64
212 -146 130z"/>
</g>
</svg>
